# xmcd CD database file
# Copyright (C) 1993-1998 Ti Kan
#
# Track frame offsets:
#	150
#	21635
#	39070
#	55120
#	88205
#	99292
#	111380
#	139702
#	166660
#
# Disc length: 2480 seconds
#
# Revision: 1
# Processed by: cddbd v1.4b41PL1 Copyright (c) Steve Scherf et al.
# Submitted via: EasyCD 2.21 - (C) 1996 Greg Leichner
#
DISCID=6c09ae09
DTITLE=Ray Charles - Georgia On My Mind
DYEAR=1900
DGENRE=
TTITLE0=Georgia On My Mind
TTITLE1=What'd I Say
TTITLE2=Come Rain Or Come Shine
TTITLE3=A Fool For You
TTITLE4=The Right Time
TTITLE5=See See Rider
TTITLE6=Drown In My Own Tears
TTITLE7=I Got A Woman
TTITLE8=Talking 'Bout You
EXTD=
EXTT0=
EXTT1=
EXTT2=
EXTT3=
EXTT4=
EXTT5=
EXTT6=
EXTT7=
EXTT8=
PLAYORDER=
